<svg xmlns="http://www.w3.org/2000/svg" viewBox="0 0 64 64">
  <rect width="64" height="64" rx="14" fill="#0f172a"/>

  <!-- Chama exterior -->
  <path d="M32 7 C27 13 21 18 19 26 C17 34 20 41 26 46 C24 43 23 39 24 35 C25 31 28 28 32 26 C36 28 39 31 40 35 C41 39 40 43 38 46 C44 41 47 34 45 26 C43 18 37 13 32 7Z"
    fill="#f59e0b" opacity="0.3"/>

  <!-- Chama principal -->
  <path d="M32 11 C28 17 24 22 23 29 C22 36 25 42 32 47 C39 42 42 36 41 29 C40 22 36 17 32 11Z"
    fill="#f59e0b"/>

  <!-- Brilho interno -->
  <path d="M32 17 C30 21 28 25 28 30 C28 35 30 38 32 40 C34 38 36 35 36 30 C36 25 34 21 32 17Z"
    fill="#fde68a" opacity="0.55"/>

  <!-- Cruz integrada -->
  <rect x="30.5" y="19" width="3" height="24" rx="1.5" fill="#0f172a"/>
  <rect x="23"   y="28.5" width="18" height="3" rx="1.5" fill="#0f172a"/>

  <!-- Âncora: barra -->
  <rect x="25.5" y="49" width="13" height="2.5" rx="1.25" fill="#f59e0b"/>
  <!-- Âncora: haste -->
  <line x1="32" y1="47" x2="32" y2="58" stroke="#f59e0b" stroke-width="2.2" stroke-linecap="round"/>
  <!-- Âncora: ganchos -->
  <path d="M25.5 50.5 Q22 53 22 56.5 Q22.5 59.5 26 59.5" fill="none" stroke="#f59e0b" stroke-width="2" stroke-linecap="round" stroke-linejoin="round"/>
  <path d="M38.5 50.5 Q42 53 42 56.5 Q41.5 59.5 38 59.5" fill="none" stroke="#f59e0b" stroke-width="2" stroke-linecap="round" stroke-linejoin="round"/>
</svg>
