<svg xmlns="http://www.w3.org/2000/svg" viewBox="0 0 220 56" fill="none">
  <!-- Símbolo: chama-cruz-âncora -->
  <g>
    <path d="M28 4 C23 10 17 15 15 22 C13 29 16 36 21 40 C19 37 18 33 19 29 C20 25 23 22 28 20 C33 22 36 25 37 29 C38 33 37 37 35 40 C40 36 43 29 41 22 C39 15 33 10 28 4Z"
      fill="#f59e0b" opacity="0.35"/>
    <path d="M28 7 C24 13 20 18 19 25 C18 32 21 38 28 43 C35 38 38 32 37 25 C36 18 32 13 28 7Z"
      fill="#f59e0b"/>
    <path d="M28 12 C26 16 24 20 24 25 C24 30 26 33 28 35 C30 33 32 30 32 25 C32 20 30 16 28 12Z"
      fill="#fde68a" opacity="0.65"/>
    <!-- Cruz (branca sobre dourado para fundo escuro) -->
    <rect x="26.5" y="13" width="3" height="26" rx="1.5" fill="#0f172a" opacity="0.7"/>
    <rect x="20"   y="23" width="16" height="3"  rx="1.5" fill="#0f172a" opacity="0.7"/>
    <!-- Âncora -->
    <rect x="22" y="45" width="12" height="2.5" rx="1.25" fill="#f59e0b"/>
    <line x1="28" y1="43" x2="28" y2="52" stroke="#f59e0b" stroke-width="2" stroke-linecap="round"/>
    <path d="M22 46.5 Q19 48.5 19 51.5 Q19.5 54 22 54" fill="none" stroke="#f59e0b" stroke-width="1.8" stroke-linecap="round" stroke-linejoin="round"/>
    <path d="M34 46.5 Q37 48.5 37 51.5 Q36.5 54 34 54" fill="none" stroke="#f59e0b" stroke-width="1.8" stroke-linecap="round" stroke-linejoin="round"/>
  </g>

  <!-- Texto claro para fundos escuros -->
  <text x="52" y="30"
    font-family="'Playfair Display', 'Georgia', serif"
    font-size="22"
    font-weight="700"
    letter-spacing="-0.3"
    fill="#f8fafc">Lumen</text>

  <text x="53" y="44"
    font-family="'Inter', 'Helvetica Neue', sans-serif"
    font-size="9.5"
    font-weight="600"
    letter-spacing="2.5"
    fill="rgba(248,250,252,0.5)">PASTORAL</text>

  <line x1="46" y1="14" x2="46" y2="42" stroke="rgba(248,250,252,0.15)" stroke-width="1"/>
</svg>
